<?xml version="1.0" encoding="UTF-8" standalone="no"?>
<svg width="100px" height="100px" viewBox="0 0 100 100" version="1.1" xmlns="http://www.w3.org/2000/svg" xmlns:xlink="http://www.w3.org/1999/xlink" xmlns:sketch="http://www.bohemiancoding.com/sketch/ns">
    <!-- Generator: Sketch 3.0.1 (7597) - http://www.bohemiancoding.com/sketch -->
    <title>coslogo</title>
    <description>Created with Sketch.</description>
    <defs>
        <linearGradient x1="50%" y1="106.344821%" x2="50%" y2="0%" id="linearGradient-1">
            <stop stop-color="#2980B9" offset="0%"></stop>
            <stop stop-color="#3B97D3" offset="100%"></stop>
        </linearGradient>
    </defs>
    <g id="Page-1" stroke="none" stroke-width="1" fill="none" fill-rule="evenodd" sketch:type="MSPage">
        <g id="coslogo" sketch:type="MSArtboardGroup">
            <g id="Imported-Layers" sketch:type="MSLayerGroup">
                <path d="M0.0428571429,-0.000714285714 L100,-0.000714285714 L100,100 L0.0428571429,100 L0.0428571429,-0.000714285714 Z" id="Fill-1" fill="url(#linearGradient-1)" sketch:type="MSShapeGroup"></path>
                <path d="M14.2857143,28.5714286 L28.5721429,28.5714286 L28.5721429,14.2857143 L85.7142857,14.2857143 L85.7142857,28.5714286 L28.5721429,28.5714286 L28.5721429,71.4278571 L85.7142857,71.4278571 L85.7142857,85.7142857 L28.5721429,85.7142857 L28.5721429,71.4278571 L14.2857143,71.4278571 L14.2857143,28.5714286" id="Fill-3" fill="#DAD6D1" sketch:type="MSShapeGroup"></path>
                <path d="M21.4285714,39.2857143 L28.5721429,39.2857143 L28.5721429,32.1428571 L42.8571429,32.1428571 L42.8571429,39.2857143 L50,39.2857143 L50,60.7142857 L42.8571429,60.7142857 L42.8571429,67.8571429 L28.5721429,67.8571429 L28.5721429,60.7142857 L21.4285714,60.7142857 L21.4285714,39.2857143 L21.4285714,39.2857143 Z M28.5721429,60.7142857 L42.8571429,60.7142857 L42.8571429,39.2857143 L28.5721429,39.2857143 L28.5721429,60.7142857 Z" id="Fill-4" fill="#FFFFFF" sketch:type="MSShapeGroup"></path>
                <path d="M57.1435714,39.2857143 L64.2864286,39.2857143 L64.2864286,32.1428571 L85.7142857,32.1428571 L85.7142857,39.2857143 L64.2864286,39.2857143 L64.2864286,46.4285714 L78.5714286,46.4285714 L78.5714286,53.5714286 L85.7142857,53.5714286 L85.7142857,60.7142857 L78.5714286,60.7142857 L78.5714286,67.8571429 L57.1435714,67.8571429 L57.1435714,60.7142857 L78.5714286,60.7142857 L78.5714286,53.5714286 L64.2864286,53.5714286 L64.2864286,46.4285714 L57.1435714,46.4285714 L57.1435714,39.2857143" id="Fill-5" fill="#FFFFFF" sketch:type="MSShapeGroup"></path>
            </g>
        </g>
    </g>
</svg>